<?xml version="1.0" encoding="UTF-8" standalone="no"?>
<svg
   xmlns:dc="http://purl.org/dc/elements/1.1/"
   xmlns:cc="http://creativecommons.org/ns#"
   xmlns:rdf="http://www.w3.org/1999/02/22-rdf-syntax-ns#"
   xmlns:svg="http://www.w3.org/2000/svg"
   xmlns="http://www.w3.org/2000/svg"
   viewBox="0 0 288 345.60001"
   height="345.60001"
   width="288"
   xml:space="preserve"
   version="1.1"
   id="svg2"><metadata
     id="metadata8"><rdf:RDF><cc:Work
         rdf:about=""><dc:format>image/svg+xml</dc:format><dc:type
           rdf:resource="http://purl.org/dc/dcmitype/StillImage" /></cc:Work></rdf:RDF></metadata><defs
     id="defs6" /><g
     transform="matrix(1.3333333,0,0,-1.3333333,0,345.6)"
     id="g10"><g
       transform="scale(0.1)"
       id="g12"><path
         id="path14"
         style="fill:#231f20;fill-opacity:1;fill-rule:nonzero;stroke:none"
         d="m 0,0 2160,0 0,2592 L 0,2592 0,0 Z" /><path
         id="path16"
         style="fill:#100f0d;fill-opacity:1;fill-rule:nonzero;stroke:none"
         d="M 1726.93,1272.7 C 1765.41,903.621 1497.3,573.102 1128.16,534.551 759.027,496.09 428.578,764.18 390.094,1133.29 c -38.41,369.19 229.636,699.59 598.699,738.05 369.217,38.48 699.647,-229.51 738.137,-598.64" /><path
         id="path18"
         style="fill:none;stroke:#ffffff;stroke-width:41.67250061;stroke-linecap:butt;stroke-linejoin:miter;stroke-miterlimit:4;stroke-dasharray:none;stroke-opacity:1"
         d="M 1726.93,1272.7 C 1765.41,903.621 1497.3,573.102 1128.16,534.551 759.027,496.09 428.578,764.18 390.094,1133.29 c -38.41,369.19 229.636,699.59 598.699,738.05 369.217,38.48 699.647,-229.51 738.137,-598.64 z" /><path
         id="path20"
         style="fill:#ffffff;fill-opacity:1;fill-rule:nonzero;stroke:none"
         d="m 901.246,1448.04 -10.441,18.63 c -176.41,-99.01 -193.301,-224.34 -193.301,-224.34 -9.566,-49.1 -5.063,-124.82 35.871,-204.02 C 780.898,946.191 856.723,887 927.758,875.199 1049.9,854.762 1179.66,927.449 1180.36,927.852 1075.98,1120.29 1005.44,1255.43 901.246,1448.04 Z m 613.374,13.88 c 18.8,-34.4 18.8,-34.4 37.85,-87.04 -17.84,-9.96 -84.28,-101.97 -217.14,-185.33 21.25,-46.7 51.21,-95.73 75.71,-143.53 110.27,66.21 121.13,83.86 200.82,176.08 9.98,-160.14 -41.03,-371.44 -268.6,-498.67 l -34.84,-19.981 c -146.18,-54.738 -283.37,-72.73 -409.873,-40.82 -124.746,31.441 -241.504,107.543 -330.934,260.422 -43.047,73.621 -57.031,156.419 -61.82,225.419 -15.363,210.76 69.598,381.63 275.219,520.29 0,0 24.16,15.76 37.047,22.32 163.976,86.29 323.361,105.37 561.411,-31.15 -117.39,-23.57 -177.71,-36.23 -253.37,-78.62 17.09,-38.48 47.79,-89.41 68.12,-128.75 17.44,9.85 191.87,78.43 263.63,97.14 24.07,-27.1 56.77,-87.78 56.77,-87.78" /><path
         id="path22"
         style="fill:none;stroke:#ffffff;stroke-width:22.48290062;stroke-linecap:butt;stroke-linejoin:miter;stroke-miterlimit:4;stroke-dasharray:none;stroke-opacity:1"
         d="m 1411.04,1046.02 c -24.5,47.8 -54.46,96.83 -75.71,143.53 132.86,83.36 199.3,175.37 217.14,185.33 -19.05,52.64 -19.05,52.64 -37.85,87.04 0,0 -32.7,60.68 -56.77,87.78 -71.76,-18.71 -246.19,-87.29 -263.63,-97.14 -20.33,39.34 -51.03,90.27 -68.12,128.75 75.66,42.39 135.98,55.05 253.37,78.62 -238.05,136.52 -397.435,117.44 -561.411,31.15 -12.887,-6.56 -37.047,-22.32 -37.047,-22.32 C 575.391,1530.1 490.43,1359.23 505.793,1148.47 c 4.789,-69 18.773,-151.798 61.82,-225.419 89.43,-152.879 206.188,-228.981 330.934,-260.422 126.503,-31.91 263.693,-13.918 409.873,40.82 l 34.84,19.981 c 227.57,127.23 278.58,338.53 268.6,498.67 -79.69,-92.22 -90.55,-109.87 -200.82,-176.08 z" /><path
         id="path24"
         style="fill:none;stroke:#ffffff;stroke-width:10.81760025;stroke-linecap:butt;stroke-linejoin:miter;stroke-miterlimit:4;stroke-dasharray:none;stroke-opacity:1"
         d="M 927.758,875.199 C 856.723,887 780.898,946.191 733.375,1038.31 c -40.934,79.2 -45.437,154.92 -35.871,204.02 0,0 16.891,125.33 193.301,224.34 l 10.441,-18.63 c 104.194,-192.61 174.734,-327.75 279.114,-520.188 -0.7,-0.403 -130.46,-73.09 -252.602,-52.653 z" /><path
         id="path26"
         style="fill:#ffffff;fill-opacity:1;fill-rule:nonzero;stroke:none"
         d="m 1664.86,106.57 -400.72,1217.29 -28.55,-198.47 -249.067,750.62 -45.796,-236.74 -207.836,839.04 -115.231,-519.34 366.996,-869.02 -0.344,248.06 251.978,-643.33 66.19,174.531 362.38,-762.641" /><path
         id="path28"
         style="fill:none;stroke:#100f0d;stroke-width:20;stroke-linecap:butt;stroke-linejoin:miter;stroke-miterlimit:4;stroke-dasharray:none;stroke-opacity:1"
         d="m 1664.86,106.57 -400.72,1217.29 -28.55,-198.47 -249.067,750.62 -45.796,-236.74 -207.836,839.04 -115.231,-519.34 366.996,-869.02 -0.344,248.06 251.978,-643.33 66.19,174.531 362.38,-762.641 z" /><path
         id="path30"
         style="fill:#ffffff;fill-opacity:1;fill-rule:nonzero;stroke:none"
         d="m 99.4297,1225.73 133.4413,-13.59 17.715,174.44 51.035,-5.21 -17.933,-176.53 c -2.543,-25.37 -26.2,-43.66 -53.028,-40.9 l -138.742,14.07 c -26.8946,2.69 -46.3399,25.31 -43.7149,50.75 l 17.918,176.54 51.0309,-5.21 -17.7223,-174.36" /><path
         id="path32"
         style="fill:#ffffff;fill-opacity:1;fill-rule:nonzero;stroke:none"
         d="m 260.73,1577.2 -46.136,18.12 -39.578,-101.63 46.062,-18.12 39.652,101.63 z m -86.199,36.08 c 7.926,20.52 31.723,30.4 53.168,21.98 l 149.914,-58.83 -15.242,-39.06 -60.816,23.82 -39.52,-101.64 60.758,-23.88 -15.035,-38.61 -149.774,58.86 c -21.519,8.36 -32.418,31.63 -24.484,52.04 l 41.031,105.32" /><path
         id="path34"
         style="fill:#ffffff;fill-opacity:1;fill-rule:nonzero;stroke:none"
         d="m 382.578,1828.71 -24.617,-33.93 -13.449,9.77 -63.989,-88.06 28.825,-20.84 65.3,90.08 c 12.692,17.51 38.34,21.04 56.961,7.48 l 32.477,-23.45 c 18.687,-13.56 23.312,-38.89 10.547,-56.37 l -66.406,-91.6 c -12.821,-17.68 -38.204,-21.04 -57.028,-7.48 l -15.304,11.07 24.343,33.48 13.45,-9.77 63.988,88.12 -28.824,20.77 -65.024,-89.56 c -12.832,-17.7 -38.203,-21.05 -56.969,-7.56 l -32.406,23.5 c -18.687,13.52 -23.441,38.69 -10.621,56.44 l 66.477,91.47 c 12.687,17.53 38.277,21.05 56.961,7.55 l 15.308,-11.11" /><path
         id="path36"
         style="fill:#ffffff;fill-opacity:1;fill-rule:nonzero;stroke:none"
         d="m 546.289,1992.78 -104.758,-86.38 22.489,-27.46 84.41,69.62 27.855,-34.07 -84.406,-69.56 22.476,-27.46 104.887,86.43 27.789,-34.03 -137.152,-113.07 -128.613,156.93 137.164,113.13 27.859,-34.08" /><path
         id="path38"
         style="fill:#ffffff;fill-opacity:1;fill-rule:nonzero;stroke:none"
         d="m 1072.44,2171.74 -157.71,-13.62 3.59,-41.24 127.02,10.94 4.42,-51.04 -127.03,-11.01 3.653,-41.29 157.717,13.73 4.48,-51.12 -206.603,-17.92 -20.485,235.78 206.538,17.84 4.41,-51.05" /><path
         id="path40"
         style="fill:#ffffff;fill-opacity:1;fill-rule:nonzero;stroke:none"
         d="m 1143.2,2183.09 40.69,-8.11 -31.25,-156.16 148.12,-29.51 -8.55,-43.08 -188.81,37.59 39.8,199.27" /><path
         id="path42"
         style="fill:#ffffff;fill-opacity:1;fill-rule:nonzero;stroke:none"
         d="m 1523.79,2007.61 -122.01,59.5 -15.57,-31.89 98.13,-47.91 -19.26,-39.51 -98.19,47.91 -15.64,-31.85 121.97,-59.52 -19.29,-39.5 -159.65,77.91 89.1,182.22 159.63,-77.93 -19.22,-39.43" /><path
         id="path44"
         style="fill:#ffffff;fill-opacity:1;fill-rule:nonzero;stroke:none"
         d="m 1599.43,1952.41 -74.55,-87.57 114.75,-97.46 -28.56,-33.42 -116.11,98.64 c -16.78,14.17 -18.14,39.72 -3.18,57.36 l 77.5,90.99 c 14.9,17.63 40.49,20.36 57.11,6.09 l 116.19,-98.55 -28.48,-33.48 -114.67,97.4" /><path
         id="path46"
         style="fill:#ffffff;fill-opacity:1;fill-rule:nonzero;stroke:none"
         d="m 1891.19,1691.03 -35.66,-25.55 -43.79,61.2 -129.01,-92.46 -24.27,33.87 128.94,92.45 -43.79,61.22 35.73,25.55 111.85,-156.28" /><path
         id="path48"
         style="fill:#ffffff;fill-opacity:1;fill-rule:nonzero;stroke:none"
         d="m 1848.3,1569.66 40.74,-101.04 44.63,18.07 -40.76,100.97 -44.61,-18 z m 54.34,-140.71 c -21.18,-8.52 -45.37,0.98 -53.58,21.27 l -0.7,1.75 c -10.55,-19 -21.8,-39.35 -32.54,-58.02 l -13.79,-5.52 -16.01,39.61 42.07,74.21 -20.82,50.86 c 0.21,-0.49 -0.22,-0.98 -1.31,-1.41 0,0 -0.14,0.48 0,0.81 l -60.33,-24.26 -15.53,38.31 187.85,75.8 57.09,-141.35 c 8.14,-20.28 -2.7,-43.89 -23.79,-52.47 l -48.61,-19.59" /><path
         id="path50"
         style="fill:#ffffff;fill-opacity:1;fill-rule:nonzero;stroke:none"
         d="m 1999.59,1413.76 9.45,-40.58 -197.44,-46.39 -9.51,40.59 197.5,46.38" /><path
         id="path52"
         style="fill:#ffffff;fill-opacity:1;fill-rule:nonzero;stroke:none"
         d="m 1979.51,1289.78 -114.39,-9.18 11.93,-149.76 -43.73,-3.41 -12.05,151.56 c -1.8,21.8 15.37,40.85 38.34,42.7 l 118.89,9.48 c 22.89,1.86 42.81,-14.21 44.61,-35.96 l 12.07,-151.68 -43.73,-3.45 -11.94,149.7" /></g></g></svg>